<?xml version="1.0" standalone="no"?><!DOCTYPE svg PUBLIC "-//W3C//DTD SVG 1.1//EN" "http://www.w3.org/Graphics/SVG/1.1/DTD/svg11.dtd"><svg t="1530004729822" class="icon" style="" viewBox="0 0 1024 1024" version="1.1" xmlns="http://www.w3.org/2000/svg" p-id="2971" xmlns:xlink="http://www.w3.org/1999/xlink" width="200" height="200"><defs><style type="text/css"></style></defs><path d="M378 914c-14.4 0-28.2-6.9-36.7-19.2l-206.8-298c-14-20.3-9-48.1 11.3-62.2 20.2-14.1 48.1-9 62.2 11.2l125.4 180.8V154.7c0-24.7 20-44.7 44.7-44.7s44.7 20 44.7 44.7v714.6c0 19.5-12.7 36.8-31.3 42.6-4.6 1.4-9 2.1-13.5 2.1z" fill="#B3B3B3" p-id="2972"></path><path d="M646 914c-24.7 0-44.7-20-44.7-44.7V154.7c0-19.5 12.7-36.8 31.3-42.6 18.6-5.9 38.9 1.1 50.1 17.1l206.8 298c14 20.3 9 48.1-11.3 62.2-20.3 14.1-48.1 9-62.2-11.2L690.7 297.4v571.9c0 24.7-20 44.7-44.7 44.7z" fill="#1874D0" p-id="2973"></path></svg>