<?xml version="1.0" standalone="no"?><!DOCTYPE svg PUBLIC "-//W3C//DTD SVG 1.1//EN" "http://www.w3.org/Graphics/SVG/1.1/DTD/svg11.dtd"><svg t="1530675223690" class="icon" style="" viewBox="0 0 1024 1024" version="1.1" xmlns="http://www.w3.org/2000/svg" p-id="2892" xmlns:xlink="http://www.w3.org/1999/xlink" width="200" height="200"><defs><style type="text/css"></style></defs><path d="M378 914c-24.7 0-44.7-20-44.7-44.7V362.8L126 188.9c-14.4-12.1-19.7-31.9-13.3-49.5 6.4-17.7 23.2-29.4 42-29.4h714.7c18.1 0 34.4 10.9 41.3 27.6s3.1 35.9-9.7 48.7L690.6 396.5v338.8c0 24.6-20 44.7-44.7 44.7s-44.7-20-44.7-44.7V378c0-11.8 4.7-23.2 13.1-31.6l147.1-147.1h-484l129.3 108.4c10.1 8.5 16 21 16 34.2v527.4c0 24.7-20 44.7-44.7 44.7z" fill="" p-id="2893"></path></svg>