<?xml version="1.0" standalone="no"?><!DOCTYPE svg PUBLIC "-//W3C//DTD SVG 1.1//EN" "http://www.w3.org/Graphics/SVG/1.1/DTD/svg11.dtd"><svg t="1525747098303" class="icon" style="" viewBox="0 0 1024 1024" version="1.1" xmlns="http://www.w3.org/2000/svg" p-id="6429" xmlns:xlink="http://www.w3.org/1999/xlink" width="200" height="200"><defs><style type="text/css"></style></defs><path d="M259.52 578.176l-137.6 278.592c-11.52 31.36 13.568 59.52 44.928 44.864l278.4-137.6a61.76 61.76 0 0 0 32.96-16.32L972.8 252.8a63.68 63.68 0 0 0 0-89.984L860.352 50.368a63.488 63.488 0 0 0-89.856 0L275.84 545.216a62.208 62.208 0 0 0-16.32 32.96z m533.376-460.352a31.744 31.744 0 0 1 44.928 0l67.456 67.456a32 32 0 0 1 0 44.992l-67.456 67.456-110.848-114.048 65.92-65.856z m-113.28 113.28l113.28 111.68-359.744 359.936c-42.112-42.24-100.416-100.608-112.384-112.448l358.848-359.168zM377.152 736.64l-171.904 104.128c-15.68 7.232-29.696-7.808-22.464-22.528l104.064-172.032 90.304 90.432zM960 384v512c0 35.136-34.752 64.384-69.888 64.384H127.168a63.616 63.616 0 0 1-63.552-63.616V133.312C63.616 98.112 92.864 64 128 64h512V0H128C57.792 0 0 62.976 0 133.312v763.456C0 966.976 56.96 1024 127.168 1024h762.944C960.384 1024 1024 966.272 1024 896V384h-64z" fill="#13227a" p-id="6430"></path></svg>