<?xml version="1.0" standalone="no"?><!DOCTYPE svg PUBLIC "-//W3C//DTD SVG 1.1//EN" "http://www.w3.org/Graphics/SVG/1.1/DTD/svg11.dtd"><svg t="1525746708493" class="icon" style="" viewBox="0 0 1024 1024" version="1.1" xmlns="http://www.w3.org/2000/svg" p-id="2714" xmlns:xlink="http://www.w3.org/1999/xlink" width="200" height="200"><defs><style type="text/css"></style></defs><path d="M887.3984 309.8112a31.3856 31.3856 0 0 1-31.3856-31.3856v-25.088a2.816 2.816 0 0 0-2.816-2.816H167.9872a2.816 2.816 0 0 0-2.7648 2.816v482.9184c0 1.536 1.2288 2.816 2.7648 2.816h685.2096c1.536 0 2.816-1.28 2.816-2.816v-120.7808a31.3856 31.3856 0 0 1 62.7712 0v120.7808c0 36.2496-29.3376 65.5872-65.536 65.5872H167.936A65.5872 65.5872 0 0 1 102.4 736.256V253.3376c0-36.2496 29.3888-65.5872 65.5872-65.5872h685.2096c36.2496 0 65.5872 29.3376 65.5872 65.5872v25.088a31.3856 31.3856 0 0 1-31.3856 31.3856z" p-id="2715" fill="#cdcdcd"></path><path d="M285.5936 651.776a31.3856 31.3856 0 0 1 5.4272-44.0832l200.192-156.2112 125.952 134.5024 241.4592-217.4976 41.984 46.6944-287.232 258.7136-128.768-137.5744-154.9824 120.8832a31.3856 31.3856 0 0 1-44.032-5.4272z" p-id="2716" fill="#cdcdcd"></path><path d="M712.9088 375.4496c0-17.3568 14.0288-31.4368 31.3856-31.4368h174.9504v174.9504a31.3856 31.3856 0 1 1-62.8224 0v-112.128h-112.128a31.3856 31.3856 0 0 1-31.3856-31.3856z" p-id="2717" fill="#cdcdcd"></path></svg>